{
    "accessors": [
        {
            "bufferView": 0,
            "componentType": 5126,
            "count": 1178,
            "max": [
                0.004744360689073801,
                0.004751158412545919,
                0.004762500058859587
            ],
            "min": [
                -0.004753073677420616,
                -0.004750105086714029,
                -0.004762500058859587
            ],
            "name": "mesh0_coord_accessor",
            "type": "VEC3"
        },
        {
            "bufferView": 1,
            "componentType": 5126,
            "count": 1178,
            "max": [
                0.99620121717453,
                0.9976285696029663,
                1.0
            ],
            "min": [
                -0.9980308413505554,
                -0.9974075555801392,
                -1.0
            ],
            "name": "mesh0_norm_accessor",
            "type": "VEC3"
        },
        {
            "bufferView": 2,
            "componentType": 5125,
            "count": 7056,
            "max": [
                1177
            ],
            "min": [
                0
            ],
            "name": "mesh0_idx_accessor",
            "type": "SCALAR"
        }
    ],
    "asset": {
        "generator": "ONSHAPE BY PTC INC, 1.215",
        "version": "2.0"
    },
    "bufferViews": [
        {
            "buffer": 0,
            "byteLength": 14136,
            "name": "mesh0_coord_bufferView",
            "target": 34962
        },
        {
            "buffer": 0,
            "byteLength": 14136,
            "byteOffset": 14136,
            "name": "mesh0_norm_bufferView",
            "target": 34962
        },
        {
            "buffer": 0,
            "byteLength": 28224,
            "byteOffset": 28272,
            "name": "mesh0_idx_bufferView",
            "target": 34963
        }
    ],
    "buffers": [
        {
            "byteLength": 56496,
            "name": "Total_buffer",
            "uri": "data:application/octet-stream;base64,"
        }
    ],
    "extensionsUsed": [
        "PTC_onshape_metadata"
    ],
    "materials": [
        {
            "doubleSided": true,
            "name": "0.917647_0.917647_0.917647_0.000000_0.000000",
            "pbrMetallicRoughness": {
                "baseColorFactor": [
                    0.9176470637321472,
                    0.9176470637321472,
                    0.9176470637321472,
                    1.0
                ],
                "metallicFactor": 0.0
            }
        }
    ],
    "meshes": [
        {
            "name": "mesh0_mesh",
            "primitives": [
                {
                    "attributes": {
                        "NORMAL": 1,
                        "POSITION": 0
                    },
                    "indices": 2,
                    "material": 0
                }
            ]
        }
    ],
    "nodes": [
        {
            "extensions": {
                "PTC_onshape_metadata": {
                    "entity_type": "Body",
                    "id": [
                        "JFH"
                    ],
                    "onshape_body_id": "80"
                }
            },
            "mesh": 0,
            "name": "caster_ball"
        }
    ],
    "scene": 0,
    "scenes": [
        {
            "name": "Root",
            "nodes": [
                0
            ]
        }
    ]
}