{
    "accessors": [
        {
            "bufferView": 0,
            "componentType": 5126,
            "count": 11440,
            "max": [
                0.008999999612569809,
                0.014999999664723873,
                0.005362499970942736
            ],
            "min": [
                -0.008999999612569809,
                -0.014999999664723873,
                -0.002804017858579755
            ],
            "name": "mesh0_coord_accessor",
            "type": "VEC3"
        },
        {
            "bufferView": 1,
            "componentType": 5126,
            "count": 11440,
            "max": [
                1.0,
                1.0,
                1.0
            ],
            "min": [
                -1.0,
                -1.0,
                -1.0
            ],
            "name": "mesh0_norm_accessor",
            "type": "VEC3"
        },
        {
            "bufferView": 2,
            "componentType": 5125,
            "count": 13662,
            "max": [
                11439
            ],
            "min": [
                0
            ],
            "name": "mesh0_idx_accessor",
            "type": "SCALAR"
        }
    ],
    "asset": {
        "generator": "ONSHAPE BY PTC INC, 1.215",
        "version": "2.0"
    },
    "bufferViews": [
        {
            "buffer": 0,
            "byteLength": 137280,
            "name": "mesh0_coord_bufferView",
            "target": 34962
        },
        {
            "buffer": 0,
            "byteLength": 137280,
            "byteOffset": 137280,
            "name": "mesh0_norm_bufferView",
            "target": 34962
        },
        {
            "buffer": 0,
            "byteLength": 54648,
            "byteOffset": 274560,
            "name": "mesh0_idx_bufferView",
            "target": 34963
        }
    ],
    "buffers": [
        {
            "byteLength": 329208,
            "name": "Total_buffer",
            "uri": "data:application/octet-stream;base64,"
        }
    ],
    "extensionsUsed": [
        "PTC_onshape_metadata"
    ],
    "materials": [
        {
            "doubleSided": true,
            "name": "0.262745_0.282353_0.301961_0.000000_0.000000",
            "pbrMetallicRoughness": {
                "baseColorFactor": [
                    0.26274511218070984,
                    0.2823529541492462,
                    0.3019607961177826,
                    1.0
                ],
                "metallicFactor": 0.0
            }
        }
    ],
    "meshes": [
        {
            "name": "mesh0_mesh",
            "primitives": [
                {
                    "attributes": {
                        "NORMAL": 1,
                        "POSITION": 0
                    },
                    "indices": 2,
                    "material": 0
                }
            ]
        }
    ],
    "nodes": [
        {
            "extensions": {
                "PTC_onshape_metadata": {
                    "entity_type": "Body",
                    "id": [
                        "JFD"
                    ],
                    "onshape_body_id": "56"
                }
            },
            "mesh": 0,
            "name": "caster_frame"
        }
    ],
    "scene": 0,
    "scenes": [
        {
            "name": "Root",
            "nodes": [
                0
            ]
        }
    ]
}